<?xml version="1.0" encoding="utf-8"?>
<!-- Generator: Adobe Illustrator 22.0.1, SVG Export Plug-In . SVG Version: 6.00 Build 0)  -->
<svg version="1.1" id="Layer_1" xmlns="http://www.w3.org/2000/svg" xmlns:xlink="http://www.w3.org/1999/xlink" x="0px" y="0px"
	 viewBox="0 0 152 47.9" style="enable-background:new 0 0 152 47.9;" xml:space="preserve">
<style type="text/css">
	.st0{fill:#434A4B;}
	.st1{fill:#554A9E;}
	.st2{fill:#088CBC;}
</style>
<g>
	<g>
		<path class="st0" d="M146.9,15.8l0.1-0.4c0,0,0.6-0.2,0.8-0.6c0,0-0.2,0.4-0.8,0.4c0,0-0.4-0.6-1.3-1.1c0,0-0.2-0.8-0.9-0.8
			c-0.8,0-0.8,0.4-0.8,0.8s0.2,1.1,0.8,0.4c0,0,0.2,0.4,0.2,0.8s0,0.6,0,0.6h-3.6v1.7h-1.7l-0.3-0.3c0,0,0.2-0.2,0.2-0.7
			c0-0.3-0.3-0.3-0.3-0.6s0.1-0.3,0.1-0.4c0-0.1-0.1-0.2-0.2-0.2s-0.2,0.1-0.2,0.2c0,0.1,0.1,0.1,0.1,0.4s-0.3,0.3-0.3,0.6
			c0,0.4,0.2,0.7,0.2,0.7l-0.3,0.3h-8.1l-0.3-0.3c0,0,0.2-0.2,0.2-0.7c0-0.3-0.3-0.3-0.3-0.6s0.1-0.3,0.1-0.4c0-0.1-0.1-0.2-0.2-0.2
			s-0.2,0.1-0.2,0.2c0,0.1,0.1,0.1,0.1,0.4s-0.3,0.3-0.3,0.6c0,0.4,0.2,0.7,0.2,0.7l-0.3,0.3h-8.3l-0.3-0.3c0,0,0.2-0.2,0.2-0.7
			c0-0.3-0.3-0.3-0.3-0.6s0.1-0.3,0.1-0.4c0-0.1-0.1-0.2-0.2-0.2c-0.1,0-0.2,0.1-0.2,0.2c0,0.1,0.1,0.1,0.1,0.4s-0.3,0.3-0.3,0.6
			c0,0.4,0.2,0.7,0.2,0.7l-0.3,0.3h-8.2l-0.3-0.3c0,0,0.2-0.2,0.2-0.7c0-0.3-0.3-0.3-0.3-0.6s0.1-0.3,0.1-0.4c0-0.1-0.1-0.2-0.2-0.2
			c-0.1,0-0.2,0.1-0.2,0.2c0,0.1,0.1,0.1,0.1,0.4s-0.3,0.3-0.3,0.6c0,0.4,0.2,0.7,0.2,0.7l-0.3,0.3h-10.7v-2.7h-4.8l-0.3-0.3
			c0,0,0.2-0.2,0.2-0.7c0-0.3-0.3-0.3-0.3-0.6s0.1-0.3,0.1-0.4s-0.1-0.2-0.2-0.2c-0.1,0-0.2,0.1-0.2,0.2s0.1,0.1,0.1,0.4
			s-0.3,0.3-0.3,0.6c0,0.4,0.2,0.7,0.2,0.7l-0.3,0.3h-8.2l-0.3-0.3c0,0,0.2-0.2,0.2-0.7c0-0.3-0.3-0.3-0.3-0.6s0.1-0.3,0.1-0.4
			s-0.1-0.2-0.2-0.2c-0.1,0-0.2,0.1-0.2,0.2S86,13,86,13.3s-0.3,0.3-0.3,0.6c0,0.4,0.2,0.7,0.2,0.7l-0.3,0.3h-5.1
			c0,0,0.5-0.2,0.5-0.5c0-0.4-0.2-0.7-0.7-0.7c-0.5,0-0.5,0.7-0.5,0.7C78.3,13.6,78,11,78,11l0.7-0.5V9.7l-2.4-0.9V7.9l0.4-0.4
			L76,6.8c0,0,0.2-0.7,0.2-1.3c0-0.5-0.4-1.3-0.4-1.3s0.5,0.2,1.1-0.7c0.5-0.9,0.4-1.8,0.4-1.8C76.2,3,75.8,3.2,75.8,3
			c0-0.2-0.2-0.4-0.4-0.4c-0.4,0-0.4,0.7-0.4,0.7s-0.2,0-0.2,0.4c0,0,0,0.1,0,0.1l-1.1-3.4c0,0,0-0.1,0-0.1c0-0.1,0-0.1-0.1-0.1
			L73.8,0l-0.4,0.1l0.2,0.1c0,0,0,0,0,0.1c0,0.1,0,0.1,0.1,0.1l1.3,4c0.1,1.2,0.5,2.4,0.5,2.4l-0.5,0.7l0.4,0.2v1.1l-2.5,1.1v0.5
			l0.9,0.4c-0.5,3.3-1.6,3.3-1.6,3.3c0-0.4-0.2-0.5-0.5-0.5c-0.4,0-0.7,0-0.7,0.5c0,0.5,0.4,0.7,0.4,0.7h-4.9l-0.3-0.3
			c0,0,0.2-0.2,0.2-0.7c0-0.3-0.3-0.3-0.3-0.6s0.1-0.3,0.1-0.4s-0.1-0.2-0.2-0.2c-0.1,0-0.2,0.1-0.2,0.2s0.1,0.1,0.1,0.4
			s-0.3,0.3-0.3,0.6c0,0.4,0.2,0.7,0.2,0.7l-0.3,0.3H57l-0.3-0.3c0,0,0.2-0.2,0.2-0.7c0-0.3-0.3-0.3-0.3-0.6s0.1-0.3,0.1-0.4
			s-0.1-0.2-0.2-0.2c-0.1,0-0.2,0.1-0.2,0.2s0.1,0.1,0.1,0.4s-0.3,0.3-0.3,0.6c0,0.4,0.2,0.7,0.2,0.7l-0.3,0.3h-4.8v2.7H40.5
			l-0.3-0.3c0,0,0.2-0.2,0.2-0.7c0-0.3-0.3-0.3-0.3-0.6s0.1-0.3,0.1-0.4c0-0.1-0.1-0.2-0.2-0.2s-0.2,0.1-0.2,0.2
			c0,0.1,0.1,0.1,0.1,0.4s-0.3,0.3-0.3,0.6c0,0.4,0.2,0.7,0.2,0.7l-0.3,0.3h-8.2l-0.3-0.3c0,0,0.2-0.2,0.2-0.7
			c0-0.3-0.3-0.3-0.3-0.6s0.1-0.3,0.1-0.4c0-0.1-0.1-0.2-0.2-0.2c-0.1,0-0.2,0.1-0.2,0.2c0,0.1,0.1,0.1,0.1,0.4s-0.3,0.3-0.3,0.6
			c0,0.4,0.2,0.7,0.2,0.7l-0.3,0.3h-8.3l-0.3-0.3c0,0,0.2-0.2,0.2-0.7c0-0.3-0.3-0.3-0.3-0.6s0.1-0.3,0.1-0.4c0-0.1-0.1-0.2-0.2-0.2
			s-0.2,0.1-0.2,0.2c0,0.1,0.1,0.1,0.1,0.4s-0.3,0.3-0.3,0.6c0,0.4,0.2,0.7,0.2,0.7l-0.3,0.3h-8.1l-0.3-0.3c0,0,0.2-0.2,0.2-0.7
			c0-0.3-0.3-0.3-0.3-0.6s0.1-0.3,0.1-0.4c0-0.1-0.1-0.2-0.2-0.2c-0.1,0-0.2,0.1-0.2,0.2c0,0.1,0.1,0.1,0.1,0.4s-0.3,0.3-0.3,0.6
			c0,0.4,0.2,0.7,0.2,0.7l-0.3,0.3h-1.7v-1.7H6.9c0,0,0-0.2,0-0.6s0.2-0.8,0.2-0.8c0.6,0.8,0.8,0,0.8-0.4s0-0.8-0.8-0.8
			s-0.9,0.8-0.9,0.8c-0.9,0.6-1.3,1.1-1.3,1.1c-0.5,0-0.7-0.3-0.8-0.4c0.2,0.4,0.8,0.6,0.8,0.6l0.1,0.4H1v23h55.6V23.3h4.2v15.5h1.6
			V23.3h4.1v15.5h1.6V23.3h4.1v15.5h1.6V23.3H78v15.5h1.6V23.3h4.1v15.5h1.6V23.3h4.1v15.5h1.6V23.3h4.1v15.5h55.6v-23H146.9z
			 M5.4,15.7l0.2-0.2c0.4,0.2,0.9,0,0.9,0v0.4H5.4V15.7z M7.6,36.9H3.8v-4.8c0,0,0.8-0.9,1.9-0.9s1.9,0.9,1.9,0.9V36.9z M7.6,27.6
			H3.8v-4.8c0,0,0.8-0.9,1.9-0.9s1.9,0.9,1.9,0.9V27.6z M19.2,36.5h-4.3v-5.5c0,0,0.9-1,2.2-1s2.2,1,2.2,1V36.5z M19.2,28.1h-4.3
			v-5.5c0,0,0.9-1,2.2-1s2.2,1,2.2,1V28.1z M28.4,36.5h-4.3v-5.5c0,0,0.9-1,2.2-1c1.3,0,2.2,1,2.2,1V36.5z M28.4,28.1h-4.3v-5.5
			c0,0,0.9-1,2.2-1c1.3,0,2.2,1,2.2,1V28.1z M37.7,36.5h-4.3v-5.5c0,0,0.9-1,2.2-1c1.3,0,2.2,1,2.2,1V36.5z M37.7,28.1h-4.3v-5.5
			c0,0,0.9-1,2.2-1c1.3,0,2.2,1,2.2,1V28.1z M46.9,36.5h-4.3v-5.5c0,0,0.9-1,2.2-1s2.2,1,2.2,1V36.5z M46.9,28.1h-4.3v-5.5
			c0,0,0.9-1,2.2-1s2.2,1,2.2,1V28.1z M109.2,36.5h-4.3v-5.5c0,0,0.9-1,2.2-1c1.3,0,2.2,1,2.2,1V36.5z M109.2,28.1h-4.3v-5.5
			c0,0,0.9-1,2.2-1c1.3,0,2.2,1,2.2,1V28.1z M118.4,36.5H114v-5.5c0,0,0.9-1,2.2-1s2.2,1,2.2,1V36.5z M118.4,28.1H114v-5.5
			c0,0,0.9-1,2.2-1s2.2,1,2.2,1V28.1z M127.7,36.5h-4.3v-5.5c0,0,0.9-1,2.2-1c1.3,0,2.2,1,2.2,1V36.5z M127.7,28.1h-4.3v-5.5
			c0,0,0.9-1,2.2-1c1.3,0,2.2,1,2.2,1V28.1z M136.9,36.5h-4.3v-5.5c0,0,0.9-1,2.2-1c1.3,0,2.2,1,2.2,1V36.5z M136.9,28.1h-4.3v-5.5
			c0,0,0.9-1,2.2-1c1.3,0,2.2,1,2.2,1V28.1z M145.3,15.5c0,0,0.6,0.2,0.9,0l0.2,0.2v0.2h-1.1V15.5z M147.9,36.9h-3.8v-4.8
			c0,0,0.8-0.9,1.9-0.9s1.9,0.9,1.9,0.9V36.9z M147.9,27.6h-3.8v-4.8c0,0,0.8-0.9,1.9-0.9s1.9,0.9,1.9,0.9V27.6z"/>
	</g>
</g>
</svg>
